{
 "cells": [
  {
   "cell_type": "code",
   "execution_count": 3,
   "metadata": {},
   "outputs": [
    {
     "name": "stdout",
     "output_type": "stream",
     "text": [
      "ffmpeg -i Minions__Bubble_Gum.mp4 -vsync 0 .tmpSuperSloMo/input/%06d.png\n",
      "ffmpeg version 3.4.6-0ubuntu0.18.04.1 Copyright (c) 2000-2019 the FFmpeg developers\n",
      "  built with gcc 7 (Ubuntu 7.3.0-16ubuntu3)\n",
      "  configuration: --prefix=/usr --extra-version=0ubuntu0.18.04.1 --toolchain=hardened --libdir=/usr/lib/x86_64-linux-gnu --incdir=/usr/include/x86_64-linux-gnu --enable-gpl --disable-stripping --enable-avresample --enable-avisynth --enable-gnutls --enable-ladspa --enable-libass --enable-libbluray --enable-libbs2b --enable-libcaca --enable-libcdio --enable-libflite --enable-libfontconfig --enable-libfreetype --enable-libfribidi --enable-libgme --enable-libgsm --enable-libmp3lame --enable-libmysofa --enable-libopenjpeg --enable-libopenmpt --enable-libopus --enable-libpulse --enable-librubberband --enable-librsvg --enable-libshine --enable-libsnappy --enable-libsoxr --enable-libspeex --enable-libssh --enable-libtheora --enable-libtwolame --enable-libvorbis --enable-libvpx --enable-libwavpack --enable-libwebp --enable-libx265 --enable-libxml2 --enable-libxvid --enable-libzmq --enable-libzvbi --enable-omx --enable-openal --enable-opengl --enable-sdl2 --enable-libdc1394 --enable-libdrm --enable-libiec61883 --enable-chromaprint --enable-frei0r --enable-libopencv --enable-libx264 --enable-shared\n",
      "  libavutil      55. 78.100 / 55. 78.100\n",
      "  libavcodec     57.107.100 / 57.107.100\n",
      "  libavformat    57. 83.100 / 57. 83.100\n",
      "  libavdevice    57. 10.100 / 57. 10.100\n",
      "  libavfilter     6.107.100 /  6.107.100\n",
      "  libavresample   3.  7.  0 /  3.  7.  0\n",
      "  libswscale      4.  8.100 /  4.  8.100\n",
      "  libswresample   2.  9.100 /  2.  9.100\n",
      "  libpostproc    54.  7.100 / 54.  7.100\n",
      "Input #0, mov,mp4,m4a,3gp,3g2,mj2, from 'Minions__Bubble_Gum.mp4':\n",
      "  Metadata:\n",
      "    major_brand     : mp42\n",
      "    minor_version   : 0\n",
      "    compatible_brands: isommp42\n",
      "    creation_time   : 2019-01-17T02:47:14.000000Z\n",
      "  Duration: 00:00:10.10, start: 0.000000, bitrate: 362 kb/s\n",
      "    Stream #0:0(und): Video: h264 (Constrained Baseline) (avc1 / 0x31637661), yuv420p(tv, smpte170m/smpte170m/bt709), 640x360 [SAR 1:1 DAR 16:9], 264 kb/s, 24 fps, 24 tbr, 12288 tbn, 48 tbc (default)\n",
      "    Metadata:\n",
      "      creation_time   : 2019-01-17T02:47:14.000000Z\n",
      "      handler_name    : ISO Media file produced by Google Inc. Created on: 01/16/2019.\n",
      "    Stream #0:1(und): Audio: aac (LC) (mp4a / 0x6134706D), 44100 Hz, stereo, fltp, 96 kb/s (default)\n",
      "    Metadata:\n",
      "      creation_time   : 2019-01-17T02:47:14.000000Z\n",
      "      handler_name    : ISO Media file produced by Google Inc. Created on: 01/16/2019.\n",
      "Stream mapping:\n",
      "  Stream #0:0 -> #0:0 (h264 (native) -> png (native))\n",
      "Press [q] to stop, [?] for help\n",
      "Output #0, image2, to '.tmpSuperSloMo/input/%06d.png':\n",
      "  Metadata:\n",
      "    major_brand     : mp42\n",
      "    minor_version   : 0\n",
      "    compatible_brands: isommp42\n",
      "    encoder         : Lavf57.83.100\n",
      "    Stream #0:0(und): Video: png, rgb24, 640x360 [SAR 1:1 DAR 16:9], q=2-31, 200 kb/s, 24 fps, 24 tbn, 24 tbc (default)\n",
      "    Metadata:\n",
      "      creation_time   : 2019-01-17T02:47:14.000000Z\n",
      "      handler_name    : ISO Media file produced by Google Inc. Created on: 01/16/2019.\n",
      "      encoder         : Lavc57.107.100 png\n",
      "frame=  241 fps=0.0 q=-0.0 Lsize=N/A time=00:00:10.04 bitrate=N/A speed=20.1x    \n",
      "video:18075kB audio:0kB subtitle:0kB other streams:0kB global headers:0kB muxing overhead: unknown\n",
      "  0%|                                                   | 0/240 [00:00<?, ?it/s]/usr/local/lib/python3.6/dist-packages/torch/nn/functional.py:2506: UserWarning: Default upsampling behavior when mode=bilinear is changed to align_corners=False since 0.4.0. Please specify align_corners=True if the old behavior is desired. See the documentation of nn.Upsample for details.\n",
      "  \"See the documentation of nn.Upsample for details.\".format(mode))\n",
      "/usr/local/lib/python3.6/dist-packages/torch/nn/functional.py:2705: UserWarning: Default grid_sample and affine_grid behavior has changed to align_corners=False since 1.3.0. Please specify align_corners=True if the old behavior is desired. See the documentation of grid_sample for details.\n",
      "  warnings.warn(\"Default grid_sample and affine_grid behavior has changed \"\n",
      "100%|█████████████████████████████████████████| 240/240 [01:19<00:00,  3.01it/s]\n",
      "ffmpeg -r 24.0 -i .tmpSuperSloMo/output/%d.png -vcodec ffvhuff output.mkv\n",
      "ffmpeg version 3.4.6-0ubuntu0.18.04.1 Copyright (c) 2000-2019 the FFmpeg developers\n",
      "  built with gcc 7 (Ubuntu 7.3.0-16ubuntu3)\n",
      "  configuration: --prefix=/usr --extra-version=0ubuntu0.18.04.1 --toolchain=hardened --libdir=/usr/lib/x86_64-linux-gnu --incdir=/usr/include/x86_64-linux-gnu --enable-gpl --disable-stripping --enable-avresample --enable-avisynth --enable-gnutls --enable-ladspa --enable-libass --enable-libbluray --enable-libbs2b --enable-libcaca --enable-libcdio --enable-libflite --enable-libfontconfig --enable-libfreetype --enable-libfribidi --enable-libgme --enable-libgsm --enable-libmp3lame --enable-libmysofa --enable-libopenjpeg --enable-libopenmpt --enable-libopus --enable-libpulse --enable-librubberband --enable-librsvg --enable-libshine --enable-libsnappy --enable-libsoxr --enable-libspeex --enable-libssh --enable-libtheora --enable-libtwolame --enable-libvorbis --enable-libvpx --enable-libwavpack --enable-libwebp --enable-libx265 --enable-libxml2 --enable-libxvid --enable-libzmq --enable-libzvbi --enable-omx --enable-openal --enable-opengl --enable-sdl2 --enable-libdc1394 --enable-libdrm --enable-libiec61883 --enable-chromaprint --enable-frei0r --enable-libopencv --enable-libx264 --enable-shared\n",
      "  libavutil      55. 78.100 / 55. 78.100\n",
      "  libavcodec     57.107.100 / 57.107.100\n",
      "  libavformat    57. 83.100 / 57. 83.100\n",
      "  libavdevice    57. 10.100 / 57. 10.100\n",
      "  libavfilter     6.107.100 /  6.107.100\n",
      "  libavresample   3.  7.  0 /  3.  7.  0\n",
      "  libswscale      4.  8.100 /  4.  8.100\n",
      "  libswresample   2.  9.100 /  2.  9.100\n",
      "  libpostproc    54.  7.100 / 54.  7.100\n",
      "Input #0, image2, from '.tmpSuperSloMo/output/%d.png':\n",
      "  Duration: 00:00:48.00, start: 0.000000, bitrate: N/A\n",
      "    Stream #0:0: Video: png, rgb24(pc), 640x360, 25 fps, 25 tbr, 25 tbn, 25 tbc\n",
      "Stream mapping:\n",
      "  Stream #0:0 -> #0:0 (png (native) -> ffvhuff (native))\n",
      "Press [q] to stop, [?] for help\n",
      "Output #0, matroska, to 'output.mkv':\n",
      "  Metadata:\n",
      "    encoder         : Lavf57.83.100\n",
      "    Stream #0:0: Video: ffvhuff (FFVH / 0x48564646), rgb24, 640x360, q=2-31, 200 kb/s, 24 fps, 1k tbn, 24 tbc\n",
      "    Metadata:\n",
      "      encoder         : Lavc57.107.100 ffvhuff\n",
      "frame= 1200 fps=0.0 q=-0.0 Lsize=  232350kB time=00:00:49.95 bitrate=38099.4kbits/s speed=54.2x    \n",
      "video:232290kB audio:0kB subtitle:0kB other streams:0kB global headers:0kB muxing overhead: 0.025538%\n"
     ]
    }
   ],
   "source": [
    "!python Super-SloMo/video_to_slomo.py --ffmpeg '' --video Minions__Bubble_Gum.mp4 --sf 5 --checkpoint SuperSloMo1.ckpt --fps 24 --output output.mkv"
   ]
  }
 ],
 "metadata": {
  "kernelspec": {
   "display_name": "Python 3",
   "language": "python",
   "name": "python3"
  },
  "language_info": {
   "codemirror_mode": {
    "name": "ipython",
    "version": 3
   },
   "file_extension": ".py",
   "mimetype": "text/x-python",
   "name": "python",
   "nbconvert_exporter": "python",
   "pygments_lexer": "ipython3",
   "version": "3.6.9"
  }
 },
 "nbformat": 4,
 "nbformat_minor": 4
}
